<svg width="32" height="32" viewBox="0 0 32 32" fill="none" xmlns="http://www.w3.org/2000/svg">
<path d="M24.5148 15.9998C27.5961 11.6736 29.1673 7.20231 26.9823 5.01732C24.7973 2.83232 20.3261 4.40357 15.9998 7.48482C11.6736 4.40357 7.20231 2.83232 5.01732 5.01732C2.83232 7.20231 4.40357 11.6736 7.48482 15.9998C4.40357 20.3261 2.83232 24.7973 5.01732 26.9823C5.72107 27.6861 6.66106 27.9998 7.75606 27.9998C10.0661 27.9998 13.0661 26.6036 16.0061 24.5148C18.9336 26.6036 21.9336 27.9998 24.2498 27.9998C25.3448 27.9998 26.2861 27.6848 26.9886 26.9823C29.1673 24.7973 27.5961 20.3261 24.5148 15.9998ZM25.5686 6.43107C26.5236 7.38607 25.8786 10.4811 23.2536 14.3411C22.4231 13.313 21.539 12.3296 20.6048 11.3948C19.6699 10.4619 18.6865 9.57904 17.6586 8.74981C21.5186 6.12481 24.6136 5.47482 25.5686 6.43107ZM22.0361 15.9998C21.1515 17.1188 20.2015 18.1844 19.1911 19.1911C18.1844 20.2015 17.1188 21.1515 15.9998 22.0361C14.8809 21.1515 13.8152 20.2015 12.8086 19.1911C11.7981 18.1844 10.8481 17.1188 9.96356 15.9998C11.7382 13.7635 13.7635 11.7382 15.9998 9.96356C17.1188 10.8481 18.1844 11.7981 19.1911 12.8086C20.2015 13.8152 21.1515 14.8809 22.0361 15.9998ZM6.43107 6.43107C6.70607 6.15482 7.15981 6.01231 7.75856 6.01231C9.23606 6.01231 11.5948 6.87481 14.3398 8.74981C13.3129 9.57972 12.3299 10.4626 11.3948 11.3948C10.4619 12.3297 9.57904 13.3131 8.74981 14.3411C6.12481 10.4811 5.47607 7.38607 6.43107 6.43107ZM6.43107 25.5686C5.47607 24.6136 6.12481 21.5186 8.74981 17.6586C9.58026 18.6866 10.4644 19.67 11.3986 20.6048C12.3328 21.537 13.315 22.4198 14.3411 23.2498C10.4811 25.8748 7.38607 26.5248 6.43107 25.5686ZM25.5686 25.5686C24.6136 26.5248 21.5186 25.8786 17.6586 23.2536C18.686 22.4224 19.6694 21.5383 20.6048 20.6048C21.5377 19.6699 22.4206 18.6865 23.2498 17.6586C25.8748 21.5186 26.5236 24.6136 25.5686 25.5686ZM17.4998 15.9998C17.4998 16.2965 17.4118 16.5865 17.247 16.8332C17.0822 17.0798 16.8479 17.2721 16.5738 17.3856C16.2998 17.4992 15.9982 17.5289 15.7072 17.471C15.4162 17.4131 15.1489 17.2703 14.9392 17.0605C14.7294 16.8507 14.5865 16.5834 14.5286 16.2924C14.4708 16.0015 14.5005 15.6999 14.614 15.4258C14.7275 15.1517 14.9198 14.9174 15.1665 14.7526C15.4131 14.5878 15.7031 14.4998 15.9998 14.4998C16.3976 14.4998 16.7792 14.6579 17.0605 14.9392C17.3418 15.2205 17.4998 15.602 17.4998 15.9998Z" fill="#999999"/>
</svg>