<svg xmlns="http://www.w3.org/2000/svg" width="14" height="14" viewBox="0 0 14 14" fill="none">
  <path d="M12.4688 7C12.4688 7.17405 12.3996 7.34097 12.2765 7.46404C12.1535 7.58711 11.9865 7.65625 11.8125 7.65625H2.1875C2.01345 7.65625 1.84653 7.58711 1.72346 7.46404C1.60039 7.34097 1.53125 7.17405 1.53125 7C1.53125 6.82595 1.60039 6.65903 1.72346 6.53596C1.84653 6.41289 2.01345 6.34375 2.1875 6.34375H11.8125C11.9865 6.34375 12.1535 6.41289 12.2765 6.53596C12.3996 6.65903 12.4688 6.82595 12.4688 7ZM2.1875 4.15625H11.8125C11.9865 4.15625 12.1535 4.08711 12.2765 3.96404C12.3996 3.84097 12.4688 3.67405 12.4688 3.5C12.4688 3.32595 12.3996 3.15903 12.2765 3.03596C12.1535 2.91289 11.9865 2.84375 11.8125 2.84375H2.1875C2.01345 2.84375 1.84653 2.91289 1.72346 3.03596C1.60039 3.15903 1.53125 3.32595 1.53125 3.5C1.53125 3.67405 1.60039 3.84097 1.72346 3.96404C1.84653 4.08711 2.01345 4.15625 2.1875 4.15625ZM11.8125 9.84375H2.1875C2.01345 9.84375 1.84653 9.91289 1.72346 10.036C1.60039 10.159 1.53125 10.326 1.53125 10.5C1.53125 10.674 1.60039 10.841 1.72346 10.964C1.84653 11.0871 2.01345 11.1562 2.1875 11.1562H11.8125C11.9865 11.1562 12.1535 11.0871 12.2765 10.964C12.3996 10.841 12.4688 10.674 12.4688 10.5C12.4688 10.326 12.3996 10.159 12.2765 10.036C12.1535 9.91289 11.9865 9.84375 11.8125 9.84375Z" fill="#8800CC"/>
</svg>