<svg xmlns="http://www.w3.org/2000/svg" width="14" height="14" viewBox="0 0 14 14" fill="none">
  <path d="M12.7143 11.785L10.1172 9.18682C10.8959 8.17207 11.2594 6.89912 11.1341 5.62619C11.0088 4.35326 10.4039 3.17566 9.44226 2.33228C8.48061 1.4889 7.23415 1.04289 5.95575 1.08473C4.67734 1.12657 3.46271 1.65312 2.55826 2.55757C1.65381 3.46203 1.12726 4.67665 1.08542 5.95506C1.04358 7.23346 1.48958 8.47992 2.33296 9.44158C3.17634 10.4032 4.35394 11.0081 5.62688 11.1334C6.89981 11.2588 8.17276 10.8952 9.1875 10.1165L11.7868 12.7163C11.8478 12.7774 11.9203 12.8258 12.0001 12.8589C12.0798 12.8919 12.1653 12.9089 12.2516 12.9089C12.338 12.9089 12.4235 12.8919 12.5032 12.8589C12.583 12.8258 12.6554 12.7774 12.7165 12.7163C12.7775 12.6553 12.826 12.5828 12.859 12.5031C12.892 12.4233 12.909 12.3378 12.909 12.2515C12.909 12.1652 12.892 12.0797 12.859 11.9999C12.826 11.9202 12.7775 11.8477 12.7165 11.7867L12.7143 11.785ZM2.40625 6.12432C2.40625 5.38882 2.62435 4.66983 3.03297 4.05829C3.4416 3.44674 4.02238 2.9701 4.7019 2.68864C5.38141 2.40717 6.12913 2.33353 6.85049 2.47702C7.57186 2.62051 8.23448 2.97469 8.75456 3.49476C9.27463 4.01484 9.62881 4.67746 9.7723 5.39882C9.91579 6.12019 9.84214 6.86791 9.56068 7.54742C9.27921 8.22693 8.80257 8.80772 8.19103 9.21634C7.57948 9.62496 6.8605 9.84307 6.125 9.84307C5.13904 9.84205 4.19375 9.44993 3.49657 8.75275C2.79939 8.05557 2.40726 7.11028 2.40625 6.12432Z" fill="#080808"/>
</svg>