<svg xmlns="http://www.w3.org/2000/svg" width="32" height="32" viewBox="0 0 32 32" fill="#8800CC">
  <path d="M4.5 16C4.5 15.6022 4.65804 15.2206 4.93934 14.9393C5.22064 14.658 5.60218 14.5 6 14.5H14.5C14.8978 14.5 15.2794 14.658 15.5607 14.9393C15.842 15.2206 16 15.6022 16 16C16 16.3978 15.842 16.7793 15.5607 17.0607C15.2794 17.342 14.8978 17.5 14.5 17.5H6C5.60218 17.5 5.22064 17.342 4.93934 17.0607C4.65804 16.7793 4.5 16.3978 4.5 16ZM6 9.49999H12.5C12.8978 9.49999 13.2794 9.34196 13.5607 9.06065C13.842 8.77935 14 8.39782 14 7.99999C14 7.60217 13.842 7.22064 13.5607 6.93933C13.2794 6.65803 12.8978 6.49999 12.5 6.49999H6C5.60218 6.49999 5.22064 6.65803 4.93934 6.93933C4.65804 7.22064 4.5 7.60217 4.5 7.99999C4.5 8.39782 4.65804 8.77935 4.93934 9.06065C5.22064 9.34196 5.60218 9.49999 6 9.49999ZM22.5 22.5H6C5.60218 22.5 5.22064 22.658 4.93934 22.9393C4.65804 23.2206 4.5 23.6022 4.5 24C4.5 24.3978 4.65804 24.7793 4.93934 25.0606C5.22064 25.342 5.60218 25.5 6 25.5H22.5C22.8978 25.5 23.2794 25.342 23.5607 25.0606C23.842 24.7793 24 24.3978 24 24C24 23.6022 23.842 23.2206 23.5607 22.9393C23.2794 22.658 22.8978 22.5 22.5 22.5ZM29.0613 9.93874L24.0613 4.93874C23.9219 4.7989 23.7563 4.68795 23.574 4.61224C23.3917 4.53653 23.1962 4.49756 22.9988 4.49756C22.8013 4.49756 22.6059 4.53653 22.4235 4.61224C22.2412 4.68795 22.0756 4.7989 21.9363 4.93874L16.9363 9.93874C16.6545 10.2205 16.4961 10.6027 16.4961 11.0012C16.4961 11.3998 16.6545 11.7819 16.9363 12.0637C17.218 12.3455 17.6002 12.5038 17.9988 12.5038C18.3973 12.5038 18.7795 12.3455 19.0613 12.0637L21.5 9.62499V18C21.5 18.3978 21.658 18.7793 21.9393 19.0607C22.2206 19.342 22.6022 19.5 23 19.5C23.3978 19.5 23.7794 19.342 24.0607 19.0607C24.342 18.7793 24.5 18.3978 24.5 18V9.62499L26.9387 12.065C27.0783 12.2045 27.2439 12.3152 27.4262 12.3907C27.6085 12.4662 27.8039 12.5051 28.0012 12.5051C28.1986 12.5051 28.394 12.4662 28.5763 12.3907C28.7586 12.3152 28.9242 12.2045 29.0637 12.065C29.2033 11.9255 29.314 11.7598 29.3895 11.5775C29.465 11.3952 29.5039 11.1998 29.5039 11.0025C29.5039 10.8052 29.465 10.6098 29.3895 10.4275C29.314 10.2452 29.2033 10.0795 29.0637 9.93999L29.0613 9.93874Z"/>
</svg>