<svg width="14" height="14" viewBox="0 0 14 14" fill="none" xmlns="http://www.w3.org/2000/svg">
<path d="M1.96875 7.00106C1.96875 6.82702 2.03789 6.6601 2.16096 6.53702C2.28403 6.41395 2.45095 6.34481 2.625 6.34481H6.34375C6.5178 6.34481 6.68472 6.41395 6.80779 6.53702C6.93086 6.6601 7 6.82702 7 7.00106C7 7.17511 6.93086 7.34203 6.80779 7.4651C6.68472 7.58817 6.5178 7.65731 6.34375 7.65731H2.625C2.45095 7.65731 2.28403 7.58817 2.16096 7.4651C2.03789 7.34203 1.96875 7.17511 1.96875 7.00106ZM2.625 4.15731H5.46875C5.6428 4.15731 5.80972 4.08817 5.93279 3.9651C6.05586 3.84203 6.125 3.67511 6.125 3.50106C6.125 3.32702 6.05586 3.1601 5.93279 3.03703C5.80972 2.91395 5.6428 2.84481 5.46875 2.84481H2.625C2.45095 2.84481 2.28403 2.91395 2.16096 3.03703C2.03789 3.1601 1.96875 3.32702 1.96875 3.50106C1.96875 3.67511 2.03789 3.84203 2.16096 3.9651C2.28403 4.08817 2.45095 4.15731 2.625 4.15731ZM9.84375 9.84481H2.625C2.45095 9.84481 2.28403 9.91395 2.16096 10.037C2.03789 10.1601 1.96875 10.327 1.96875 10.5011C1.96875 10.6751 2.03789 10.842 2.16096 10.9651C2.28403 11.0882 2.45095 11.1573 2.625 11.1573H9.84375C10.0178 11.1573 10.1847 11.0882 10.3078 10.9651C10.4309 10.842 10.5 10.6751 10.5 10.5011C10.5 10.327 10.4309 10.1601 10.3078 10.037C10.1847 9.91395 10.0178 9.84481 9.84375 9.84481ZM12.7143 4.34927L10.5268 2.16177C10.4658 2.10059 10.3934 2.05204 10.3136 2.01892C10.2338 1.9858 10.1483 1.96875 10.062 1.96875C9.97558 1.96875 9.89006 1.9858 9.81029 2.01892C9.73052 2.05204 9.65808 2.10059 9.59711 2.16177L7.40961 4.34927C7.28633 4.47255 7.21707 4.63976 7.21707 4.81411C7.21707 4.98846 7.28633 5.15567 7.40961 5.27895C7.53289 5.40224 7.7001 5.4715 7.87445 5.4715C8.0488 5.4715 8.21601 5.40224 8.3393 5.27895L9.40625 4.212V7.87606C9.40625 8.05011 9.47539 8.21703 9.59846 8.3401C9.72153 8.46317 9.88845 8.53231 10.0625 8.53231C10.2365 8.53231 10.4035 8.46317 10.5265 8.3401C10.6496 8.21703 10.7188 8.05011 10.7188 7.87606V4.212L11.7857 5.2795C11.8467 5.34055 11.9192 5.38897 11.999 5.42201C12.0787 5.45504 12.1642 5.47205 12.2505 5.47205C12.3369 5.47205 12.4224 5.45504 12.5021 5.42201C12.5819 5.38897 12.6543 5.34055 12.7154 5.2795C12.7764 5.21846 12.8249 5.14599 12.8579 5.06623C12.8909 4.98647 12.9079 4.90099 12.9079 4.81466C12.9079 4.72833 12.8909 4.64284 12.8579 4.56309C12.8249 4.48333 12.7764 4.41086 12.7154 4.34981L12.7143 4.34927Z" fill="#8800CC"/>
</svg>
