<svg xmlns="http://www.w3.org/2000/svg" width="32" height="32" viewBox="0 0 32 32" fill="#AA00FF">
  <path d="M16 16C16 16.3978 15.842 16.7794 15.5607 17.0607C15.2794 17.342 14.8978 17.5 14.5 17.5H6C5.60218 17.5 5.22064 17.342 4.93934 17.0607C4.65804 16.7794 4.5 16.3978 4.5 16C4.5 15.6022 4.65804 15.2206 4.93934 14.9393C5.22064 14.658 5.60218 14.5 6 14.5H14.5C14.8978 14.5 15.2794 14.658 15.5607 14.9393C15.842 15.2206 16 15.6022 16 16ZM6 9.5H22.5C22.8978 9.5 23.2794 9.34196 23.5607 9.06066C23.842 8.77936 24 8.39782 24 8C24 7.60218 23.842 7.22064 23.5607 6.93934C23.2794 6.65804 22.8978 6.5 22.5 6.5H6C5.60218 6.5 5.22064 6.65804 4.93934 6.93934C4.65804 7.22064 4.5 7.60218 4.5 8C4.5 8.39782 4.65804 8.77936 4.93934 9.06066C5.22064 9.34196 5.60218 9.5 6 9.5ZM12.5 22.5H6C5.60218 22.5 5.22064 22.658 4.93934 22.9393C4.65804 23.2206 4.5 23.6022 4.5 24C4.5 24.3978 4.65804 24.7794 4.93934 25.0607C5.22064 25.342 5.60218 25.5 6 25.5H12.5C12.8978 25.5 13.2794 25.342 13.5607 25.0607C13.842 24.7794 14 24.3978 14 24C14 23.6022 13.842 23.2206 13.5607 22.9393C13.2794 22.658 12.8978 22.5 12.5 22.5ZM29.0613 19.9387C28.9219 19.7989 28.7563 19.688 28.574 19.6122C28.3917 19.5365 28.1962 19.4976 27.9988 19.4976C27.8013 19.4976 27.6059 19.5365 27.4235 19.6122C27.2412 19.688 27.0756 19.7989 26.9363 19.9387L24.5 22.375V14C24.5 13.6022 24.342 13.2206 24.0607 12.9393C23.7794 12.658 23.3978 12.5 23 12.5C22.6022 12.5 22.2206 12.658 21.9393 12.9393C21.658 13.2206 21.5 13.6022 21.5 14V22.375L19.0613 19.935C18.7795 19.6532 18.3973 19.4949 17.9988 19.4949C17.6002 19.4949 17.218 19.6532 16.9363 19.935C16.6545 20.2168 16.4961 20.599 16.4961 20.9975C16.4961 21.396 16.6545 21.7782 16.9363 22.06L21.9363 27.06C22.0756 27.1998 22.2412 27.3108 22.4235 27.3865C22.6059 27.4622 22.8013 27.5012 22.9988 27.5012C23.1962 27.5012 23.3917 27.4622 23.574 27.3865C23.7563 27.3108 23.9219 27.1998 24.0613 27.06L29.0613 22.06C29.3425 21.7787 29.5006 21.3972 29.5006 20.9994C29.5006 20.6016 29.3425 20.2201 29.0613 19.9387Z"/>
</svg>