<svg xmlns="http://www.w3.org/2000/svg" width="14" height="14" viewBox="0 0 14 14" fill="none">
  <path d="M7 7C7 7.17405 6.93086 7.34097 6.80779 7.46404C6.68472 7.58711 6.5178 7.65625 6.34375 7.65625H2.625C2.45095 7.65625 2.28403 7.58711 2.16096 7.46404C2.03789 7.34097 1.96875 7.17405 1.96875 7C1.96875 6.82595 2.03789 6.65903 2.16096 6.53596C2.28403 6.41289 2.45095 6.34375 2.625 6.34375H6.34375C6.5178 6.34375 6.68472 6.41289 6.80779 6.53596C6.93086 6.65903 7 6.82595 7 7ZM2.625 4.15625H9.84375C10.0178 4.15625 10.1847 4.08711 10.3078 3.96404C10.4309 3.84097 10.5 3.67405 10.5 3.5C10.5 3.32595 10.4309 3.15903 10.3078 3.03596C10.1847 2.91289 10.0178 2.84375 9.84375 2.84375H2.625C2.45095 2.84375 2.28403 2.91289 2.16096 3.03596C2.03789 3.15903 1.96875 3.32595 1.96875 3.5C1.96875 3.67405 2.03789 3.84097 2.16096 3.96404C2.28403 4.08711 2.45095 4.15625 2.625 4.15625ZM5.46875 9.84375H2.625C2.45095 9.84375 2.28403 9.91289 2.16096 10.036C2.03789 10.159 1.96875 10.326 1.96875 10.5C1.96875 10.674 2.03789 10.841 2.16096 10.964C2.28403 11.0871 2.45095 11.1562 2.625 11.1562H5.46875C5.6428 11.1562 5.80972 11.0871 5.93279 10.964C6.05586 10.841 6.125 10.674 6.125 10.5C6.125 10.326 6.05586 10.159 5.93279 10.036C5.80972 9.91289 5.6428 9.84375 5.46875 9.84375ZM12.7143 8.7232C12.6533 8.66202 12.5809 8.61348 12.5011 8.58036C12.4213 8.54724 12.3358 8.53018 12.2495 8.53018C12.1631 8.53018 12.0776 8.54724 11.9978 8.58036C11.918 8.61348 11.8456 8.66202 11.7846 8.7232L10.7188 9.78906V6.125C10.7188 5.95095 10.6496 5.78403 10.5265 5.66096C10.4035 5.53789 10.2365 5.46875 10.0625 5.46875C9.88845 5.46875 9.72153 5.53789 9.59846 5.66096C9.47539 5.78403 9.40625 5.95095 9.40625 6.125V9.78906L8.3393 8.72156C8.21601 8.59828 8.0488 8.52902 7.87445 8.52902C7.7001 8.52902 7.53289 8.59828 7.40961 8.72156C7.28633 8.84485 7.21706 9.01206 7.21706 9.18641C7.21706 9.36076 7.28633 9.52797 7.40961 9.65125L9.59711 11.8387C9.65808 11.8999 9.73052 11.9485 9.81029 11.9816C9.89006 12.0147 9.97558 12.0318 10.062 12.0318C10.1483 12.0318 10.2338 12.0147 10.3136 11.9816C10.3934 11.9485 10.4658 11.8999 10.5268 11.8387L12.7143 9.65125C12.8374 9.52818 12.9065 9.36127 12.9065 9.18723C12.9065 9.01319 12.8374 8.84627 12.7143 8.7232Z" fill="#8800CC"/>
</svg>