<svg width="32" height="32" viewBox="0 0 32 32" fill="none" xmlns="http://www.w3.org/2000/svg">
<path d="M15.9999 15V7C15.9999 6.73478 16.1053 6.48043 16.2928 6.29289C16.4804 6.10536 16.7347 6 16.9999 6C17.2651 6 17.5195 6.10536 17.707 6.29289C17.8946 6.48043 17.9999 6.73478 17.9999 7V12.585L26.2924 4.2925C26.3853 4.19959 26.4956 4.12589 26.617 4.07561C26.7384 4.02532 26.8685 3.99944 26.9999 3.99944C27.1313 3.99944 27.2614 4.02532 27.3828 4.07561C27.5042 4.12589 27.6145 4.19959 27.7074 4.2925C27.8003 4.38541 27.874 4.49571 27.9243 4.6171C27.9746 4.7385 28.0005 4.8686 28.0005 5C28.0005 5.1314 27.9746 5.2615 27.9243 5.3829C27.874 5.50429 27.8003 5.61459 27.7074 5.7075L19.4149 14L24.9999 14C25.2651 14 25.5195 14.1054 25.707 14.2929C25.8946 14.4804 25.9999 14.7348 25.9999 15C25.9999 15.2652 25.8946 15.5196 25.707 15.7071C25.5195 15.8946 25.2651 16 24.9999 16L16.9999 16C16.7347 16 16.4804 15.8946 16.2928 15.7071C16.1053 15.5196 15.9999 15.2652 15.9999 15ZM5.99993 28L21.9999 28C22.5304 28 23.0391 27.7893 23.4141 27.4142C23.7892 27.0391 23.9999 26.5304 23.9999 26V20C23.9999 19.7348 23.8946 19.4804 23.707 19.2929C23.5195 19.1054 23.2651 19 22.9999 19C22.7347 19 22.4804 19.1054 22.2928 19.2929C22.1053 19.4804 21.9999 19.7348 21.9999 20V26L5.99993 26L5.99993 10H11.9999C12.2651 10 12.5195 9.89464 12.707 9.70711C12.8946 9.51957 12.9999 9.26522 12.9999 9C12.9999 8.73478 12.8946 8.48043 12.707 8.29289C12.5195 8.10536 12.2651 8 11.9999 8H5.99993C5.4695 8 4.96079 8.21071 4.58572 8.58579C4.21065 8.96086 3.99993 9.46957 3.99993 10L3.99993 26C3.99993 26.5304 4.21065 27.0391 4.58572 27.4142C4.96079 27.7893 5.4695 28 5.99993 28Z" fill="#660099"/>
</svg>
