<svg xmlns="http://www.w3.org/2000/svg" width="1em" height="1em" viewBox="0 0 36 36"><path fill="#660099" d="M18.37 11.17a6.8 6.8 0 0 0-2.37.43l8.8 8.8a6.8 6.8 0 0 0 .43-2.4a6.86 6.86 0 0 0-6.86-6.83" class="clr-i-solid clr-i-solid-path-1"/><path fill="#660099" d="M34.29 17.53c-3.37-6.23-9.28-10-15.82-10a16.8 16.8 0 0 0-5.24.85L14.84 10a14.8 14.8 0 0 1 3.63-.47c5.63 0 10.75 3.14 13.8 8.43a17.8 17.8 0 0 1-4.37 5.1l1.42 1.42a19.9 19.9 0 0 0 5-6l.26-.48Z" class="clr-i-solid clr-i-solid-path-2"/><path fill="#660099" d="m4.87 5.78l4.46 4.46a19.5 19.5 0 0 0-6.69 7.29l-.26.47l.26.48c3.37 6.23 9.28 10 15.82 10a16.9 16.9 0 0 0 7.37-1.69l5 5l1.75-1.5l-26-26Zm8.3 8.3a6.85 6.85 0 0 0 9.55 9.55l1.6 1.6a14.9 14.9 0 0 1-5.86 1.2c-5.63 0-10.75-3.14-13.8-8.43a17.3 17.3 0 0 1 6.12-6.3Z" class="clr-i-solid clr-i-solid-path-3"/><path fill="none" d="M0 0h36v36H0z"/></svg>