<svg width="123" height="104" viewBox="0 0 123 104" fill="none" xmlns="http://www.w3.org/2000/svg">
<g clip-path="url(#clip0_601_13)">
<path fill-rule="evenodd" clip-rule="evenodd" d="M10.368 0H112.512C118.215 0 122.879 4.665 122.879 10.367C122.879 16.069 118.215 20.735 112.512 20.735H10.368C4.666 20.735 0 16.07 0 10.368C0 4.665 4.666 0 10.368 0ZM10.368 82.875H112.512C118.215 82.875 122.879 87.54 122.879 93.242C122.879 98.944 118.215 103.609 112.512 103.609H10.368C4.666 103.609 0 98.944 0 93.242C0 87.54 4.666 82.875 10.368 82.875ZM10.368 41.438H112.512C118.215 41.438 122.879 46.103 122.879 51.805C122.879 57.507 118.215 62.173 112.512 62.173H10.368C4.666 62.173 0 57.507 0 51.805C0 46.103 4.666 41.438 10.368 41.438Z" fill="white"/>
</g>
<defs>
<clipPath id="clip0_601_13">
<rect width="122.879" height="103.609" fill="white"/>
</clipPath>
</defs>
</svg>
