<svg width="32" height="32" viewBox="0 0 32 32" fill="none" xmlns="http://www.w3.org/2000/svg">
<path d="M27.7812 5.95312H3.96875C3.70561 5.95312 3.45324 6.05766 3.26717 6.24373C3.0811 6.4298 2.97656 6.68217 2.97656 6.94531V23.8125C2.97656 24.3388 3.18563 24.8435 3.55777 25.2157C3.92991 25.5878 4.43465 25.7969 4.96094 25.7969H26.7891C27.3154 25.7969 27.8201 25.5878 28.1922 25.2157C28.5644 24.8435 28.7734 24.3388 28.7734 23.8125V6.94531C28.7734 6.68217 28.6689 6.4298 28.4828 6.24373C28.2968 6.05766 28.0444 5.95312 27.7812 5.95312ZM25.2301 7.9375L15.875 16.5137L6.51991 7.9375H25.2301ZM26.7891 23.8125H4.96094V9.2013L15.204 18.5911C15.3871 18.7591 15.6265 18.8524 15.875 18.8524C16.1235 18.8524 16.3629 18.7591 16.546 18.5911L26.7891 9.2013V23.8125Z" fill="#660099"/>
</svg>
