<svg width="25" height="26" viewBox="0 0 25 26" fill="none" xmlns="http://www.w3.org/2000/svg">
<path d="M12.2053 2.99707C10.244 2.99707 8.32684 3.57865 6.69613 4.66825C5.06541 5.75786 3.79443 7.30656 3.04389 9.11851C2.29336 10.9305 2.09698 12.9243 2.4796 14.8478C2.86222 16.7714 3.80665 18.5383 5.19346 19.9251C6.58026 21.3119 8.34716 22.2563 10.2707 22.639C12.1943 23.0216 14.1881 22.8252 16 22.0747C17.812 21.3241 19.3607 20.0531 20.4503 18.4224C21.5399 16.7917 22.1215 14.8745 22.1215 12.9133C22.1185 10.2843 21.0727 7.7638 19.2138 5.90481C17.3548 4.04581 14.8343 3.0001 12.2053 2.99707ZM20.5959 12.9133C20.5966 13.6871 20.4897 14.4572 20.2784 15.2016H16.6065C16.8405 13.685 16.8405 12.1415 16.6065 10.6249H20.2784C20.4897 11.3693 20.5966 12.1395 20.5959 12.9133ZM9.72622 16.7272H14.6843C14.1959 18.3277 13.3479 19.7953 12.2053 21.0179C11.0631 19.795 10.2152 18.3275 9.72622 16.7272ZM9.35437 15.2016C9.09248 13.6873 9.09248 12.1393 9.35437 10.6249H15.0638C15.3257 12.1393 15.3257 13.6873 15.0638 15.2016H9.35437ZM3.81464 12.9133C3.81397 12.1395 3.92083 11.3693 4.13215 10.6249H7.804C7.57008 12.1415 7.57008 13.685 7.804 15.2016H4.13215C3.92083 14.4572 3.81397 13.6871 3.81464 12.9133ZM14.6843 9.09935H9.72622C10.2147 7.49885 11.0626 6.03122 12.2053 4.80869C13.3475 6.03155 14.1954 7.49906 14.6843 9.09935ZM19.6739 9.09935H16.2776C15.8495 7.52888 15.1281 6.05362 14.1513 4.75148C15.3315 5.03497 16.4363 5.5703 17.3902 6.32077C18.3441 7.07124 19.1244 8.01909 19.6777 9.09935H19.6739ZM10.2592 4.75148C9.28247 6.05362 8.56102 7.52888 8.13296 9.09935H4.73284C5.28612 8.01909 6.06645 7.07124 7.02033 6.32077C7.97421 5.5703 9.07909 5.03497 10.2592 4.75148ZM4.73284 16.7272H8.13296C8.56102 18.2977 9.28247 19.7729 10.2592 21.0751C9.07909 20.7916 7.97421 20.2563 7.02033 19.5058C6.06645 18.7553 5.28612 17.8075 4.73284 16.7272ZM14.1513 21.0751C15.1281 19.7729 15.8495 18.2977 16.2776 16.7272H19.6777C19.1244 17.8075 18.3441 18.7553 17.3902 19.5058C16.4363 20.2563 15.3315 20.7916 14.1513 21.0751Z" fill="#660099"/>
</svg>
