<svg width="26" height="26" viewBox="0 0 26 26" fill="none" xmlns="http://www.w3.org/2000/svg">
<path d="M23.2964 3.28989C23.1743 3.1844 23.0256 3.11424 22.8665 3.08697C22.7074 3.0597 22.5439 3.07636 22.3936 3.13515L2.419 10.9521C2.13591 11.0622 1.89625 11.2613 1.73608 11.5193C1.57592 11.7774 1.50393 12.0805 1.53095 12.3831C1.55797 12.6856 1.68253 12.9712 1.88589 13.1968C2.08925 13.4224 2.36039 13.5758 2.6585 13.634L7.834 14.6502V20.421C7.83298 20.7353 7.9264 21.0427 8.10213 21.3033C8.27787 21.5639 8.52783 21.7658 8.81962 21.8827C9.11097 22.0016 9.43136 22.0302 9.73915 21.9646C10.0469 21.8991 10.3279 21.7424 10.5454 21.515L13.041 18.9268L17.0003 22.3922C17.2859 22.6456 17.6543 22.7858 18.0362 22.7865C18.2035 22.7863 18.3698 22.7601 18.529 22.7086C18.7891 22.6261 19.0231 22.4768 19.2076 22.2757C19.3922 22.0746 19.5208 21.8286 19.5806 21.5623L23.5813 4.15822C23.6171 4.00126 23.6095 3.83752 23.5593 3.68455C23.5091 3.53158 23.4182 3.39515 23.2964 3.28989ZM17.2703 6.83813L8.44016 13.1619L3.55148 12.2029L17.2703 6.83813ZM9.411 20.421V15.7412L11.8544 17.884L9.411 20.421ZM18.0381 21.2095L9.88902 14.0637L21.6179 5.65735L18.0381 21.2095Z" fill="#666666"/>
</svg>
