<svg width="27" height="28" viewBox="0 0 27 28" fill="none" xmlns="http://www.w3.org/2000/svg">
<path d="M22.4968 22.5237L16.0586 12.4056L22.4114 5.41712C22.5551 5.25515 22.6292 5.04309 22.6175 4.8269C22.6059 4.6107 22.5095 4.40781 22.3493 4.2622C22.1891 4.11658 21.9779 4.04 21.7616 4.04903C21.5453 4.05807 21.3413 4.15201 21.1937 4.31048L15.1422 10.9668L10.9779 4.42258C10.9036 4.3057 10.8011 4.20945 10.6797 4.14275C10.5584 4.07605 10.4221 4.04106 10.2837 4.04102H5.34699C5.19947 4.04094 5.05464 4.08054 4.92767 4.15565C4.8007 4.23076 4.69626 4.33863 4.62529 4.46796C4.55432 4.59729 4.51942 4.74332 4.52425 4.89076C4.52909 5.03821 4.57348 5.18164 4.65277 5.30604L11.091 15.4231L4.73814 22.4168C4.66395 22.4965 4.60632 22.5901 4.56858 22.6922C4.53084 22.7944 4.51375 22.903 4.5183 23.0117C4.52284 23.1205 4.54893 23.2273 4.59506 23.326C4.64118 23.4246 4.70642 23.5131 4.787 23.5863C4.86758 23.6595 4.96188 23.716 5.06446 23.7525C5.16703 23.789 5.27584 23.8048 5.38456 23.799C5.49328 23.7931 5.59976 23.7658 5.69783 23.7185C5.79589 23.6712 5.88359 23.6049 5.95585 23.5234L12.0074 16.8671L16.1717 23.4113C16.2466 23.5272 16.3494 23.6225 16.4707 23.6883C16.592 23.754 16.7279 23.7882 16.8659 23.7877H21.8026C21.95 23.7877 22.0946 23.7481 22.2214 23.673C22.3482 23.5979 22.4526 23.4902 22.5235 23.361C22.5944 23.2319 22.6294 23.086 22.6247 22.9387C22.62 22.7914 22.5758 22.6481 22.4968 22.5237ZM17.3174 22.1422L6.84548 5.68658H9.82806L20.3041 22.1422H17.3174Z" fill="#666666"/>
</svg>
