<svg width="24" height="24" viewBox="0 0 24 24" fill="none" xmlns="http://www.w3.org/2000/svg">
<path d="M20.625 4.5V8.25C20.625 8.54837 20.5065 8.83452 20.2955 9.0455C20.0845 9.25647 19.7984 9.375 19.5 9.375C19.2016 9.375 18.9155 9.25647 18.7045 9.0455C18.4935 8.83452 18.375 8.54837 18.375 8.25V5.625H15.75C15.4516 5.625 15.1655 5.50647 14.9545 5.2955C14.7435 5.08452 14.625 4.79837 14.625 4.5C14.625 4.20163 14.7435 3.91548 14.9545 3.7045C15.1655 3.49353 15.4516 3.375 15.75 3.375H19.5C19.7984 3.375 20.0845 3.49353 20.2955 3.7045C20.5065 3.91548 20.625 4.20163 20.625 4.5ZM8.25 18.375H5.625V15.75C5.625 15.4516 5.50647 15.1655 5.2955 14.9545C5.08452 14.7435 4.79837 14.625 4.5 14.625C4.20163 14.625 3.91548 14.7435 3.7045 14.9545C3.49353 15.1655 3.375 15.4516 3.375 15.75V19.5C3.375 19.7984 3.49353 20.0845 3.7045 20.2955C3.91548 20.5065 4.20163 20.625 4.5 20.625H8.25C8.54837 20.625 8.83452 20.5065 9.0455 20.2955C9.25647 20.0845 9.375 19.7984 9.375 19.5C9.375 19.2016 9.25647 18.9155 9.0455 18.7045C8.83452 18.4935 8.54837 18.375 8.25 18.375ZM19.5 14.625C19.2016 14.625 18.9155 14.7435 18.7045 14.9545C18.4935 15.1655 18.375 15.4516 18.375 15.75V18.375H15.75C15.4516 18.375 15.1655 18.4935 14.9545 18.7045C14.7435 18.9155 14.625 19.2016 14.625 19.5C14.625 19.7984 14.7435 20.0845 14.9545 20.2955C15.1655 20.5065 15.4516 20.625 15.75 20.625H19.5C19.7984 20.625 20.0845 20.5065 20.2955 20.2955C20.5065 20.0845 20.625 19.7984 20.625 19.5V15.75C20.625 15.4516 20.5065 15.1655 20.2955 14.9545C20.0845 14.7435 19.7984 14.625 19.5 14.625ZM8.25 3.375H4.5C4.20163 3.375 3.91548 3.49353 3.7045 3.7045C3.49353 3.91548 3.375 4.20163 3.375 4.5V8.25C3.375 8.54837 3.49353 8.83452 3.7045 9.0455C3.91548 9.25647 4.20163 9.375 4.5 9.375C4.79837 9.375 5.08452 9.25647 5.2955 9.0455C5.50647 8.83452 5.625 8.54837 5.625 8.25V5.625H8.25C8.54837 5.625 8.83452 5.50647 9.0455 5.2955C9.25647 5.08452 9.375 4.79837 9.375 4.5C9.375 4.20163 9.25647 3.91548 9.0455 3.7045C8.83452 3.49353 8.54837 3.375 8.25 3.375Z" fill="#440066"/>
</svg>
