<svg width="45" height="45" viewBox="0 0 45 45" fill="none" xmlns="http://www.w3.org/2000/svg">
<path d="M40.7773 0.551758H4.04261C3.06835 0.551758 2.13398 0.938783 1.44507 1.62769C0.756166 2.3166 0.369141 3.25096 0.369141 4.22523V40.9599C0.369141 41.9342 0.756166 42.8685 1.44507 43.5575C2.13398 44.2464 3.06835 44.6334 4.04261 44.6334H40.7773C41.7516 44.6334 42.6859 44.2464 43.3748 43.5575C44.0637 42.8685 44.4508 41.9342 44.4508 40.9599V4.22523C44.4508 3.25096 44.0637 2.3166 43.3748 1.62769C42.6859 0.938783 41.7516 0.551758 40.7773 0.551758ZM4.04261 4.22523H40.7773V21.991L35.1087 16.3201C34.4198 15.6317 33.4858 15.245 32.512 15.245C31.5381 15.245 30.6042 15.6317 29.9153 16.3201L5.27552 40.9599H4.04261V4.22523ZM40.7773 40.9599H10.4712L32.512 18.9191L40.7773 27.1844V40.9599ZM15.063 20.7558C16.1528 20.7558 17.2182 20.4327 18.1243 19.8272C19.0305 19.2217 19.7367 18.3612 20.1538 17.3543C20.5708 16.3474 20.68 15.2395 20.4673 14.1706C20.2547 13.1018 19.7299 12.1199 18.9593 11.3493C18.1887 10.5787 17.2069 10.0539 16.138 9.84131C15.0691 9.6287 13.9612 9.73782 12.9544 10.1549C11.9475 10.5719 11.0869 11.2782 10.4815 12.1843C9.87598 13.0905 9.55281 14.1558 9.55281 15.2456C9.55281 16.707 10.1334 18.1086 11.1667 19.1419C12.2001 20.1753 13.6016 20.7558 15.063 20.7558ZM15.063 13.4089C15.4263 13.4089 15.7814 13.5166 16.0835 13.7184C16.3855 13.9203 16.6209 14.2071 16.7599 14.5427C16.899 14.8784 16.9353 15.2477 16.8645 15.604C16.7936 15.9603 16.6187 16.2875 16.3618 16.5444C16.1049 16.8013 15.7776 16.9762 15.4213 17.0471C15.0651 17.1179 14.6957 17.0816 14.3601 16.9426C14.0245 16.8035 13.7377 16.5681 13.5358 16.2661C13.334 15.964 13.2263 15.6089 13.2263 15.2456C13.2263 14.7585 13.4198 14.2913 13.7643 13.9469C14.1087 13.6024 14.5759 13.4089 15.063 13.4089Z" fill="#999999"/>
</svg>
