<svg width="24" height="24" viewBox="0 0 24 24" fill="none" xmlns="http://www.w3.org/2000/svg">
<path d="M19.5 7.125H9.375V5.25C9.375 4.55381 9.65156 3.88613 10.1438 3.39384C10.6361 2.90156 11.3038 2.625 12 2.625C13.2666 2.625 14.4047 3.52688 14.6475 4.72406C14.6769 4.86884 14.7346 5.00641 14.8172 5.12892C14.8998 5.25142 15.0057 5.35645 15.1289 5.43802C15.252 5.51959 15.3901 5.5761 15.5351 5.60432C15.6801 5.63254 15.8293 5.63192 15.9741 5.6025C16.1188 5.57308 16.2564 5.51542 16.3789 5.43283C16.5014 5.35024 16.6065 5.24433 16.688 5.12115C16.7696 4.99797 16.8261 4.85992 16.8543 4.7149C16.8825 4.56988 16.8819 4.42072 16.8525 4.27594C16.3941 2.01562 14.3531 0.375 12 0.375C10.7075 0.376489 9.46842 0.890581 8.5545 1.8045C7.64058 2.71842 7.12649 3.95753 7.125 5.25V7.125H4.5C4.00272 7.125 3.52581 7.32254 3.17417 7.67417C2.82254 8.02581 2.625 8.50272 2.625 9V19.5C2.625 19.9973 2.82254 20.4742 3.17417 20.8258C3.52581 21.1775 4.00272 21.375 4.5 21.375H19.5C19.9973 21.375 20.4742 21.1775 20.8258 20.8258C21.1775 20.4742 21.375 19.9973 21.375 19.5V9C21.375 8.50272 21.1775 8.02581 20.8258 7.67417C20.4742 7.32254 19.9973 7.125 19.5 7.125ZM19.125 19.125H4.875V9.375H19.125V19.125Z" fill="#660099"/>
</svg>
