<svg width="24" height="24" viewBox="0 0 24 24" fill="none" xmlns="http://www.w3.org/2000/svg">
<path d="M19.5 7.125H16.875V5.25C16.875 3.95707 16.3614 2.71709 15.4471 1.80285C14.5329 0.888615 13.2929 0.375 12 0.375C10.7071 0.375 9.46709 0.888615 8.55285 1.80285C7.63861 2.71709 7.125 3.95707 7.125 5.25V7.125H4.5C4.00272 7.125 3.52581 7.32254 3.17417 7.67417C2.82254 8.02581 2.625 8.50272 2.625 9V19.5C2.625 19.9973 2.82254 20.4742 3.17417 20.8258C3.52581 21.1775 4.00272 21.375 4.5 21.375H19.5C19.9973 21.375 20.4742 21.1775 20.8258 20.8258C21.1775 20.4742 21.375 19.9973 21.375 19.5V9C21.375 8.50272 21.1775 8.02581 20.8258 7.67417C20.4742 7.32254 19.9973 7.125 19.5 7.125ZM9.375 5.25C9.375 4.55381 9.65156 3.88613 10.1438 3.39384C10.6361 2.90156 11.3038 2.625 12 2.625C12.6962 2.625 13.3639 2.90156 13.8562 3.39384C14.3484 3.88613 14.625 4.55381 14.625 5.25V7.125H9.375V5.25ZM19.125 19.125H4.875V9.375H19.125V19.125Z" fill="#440066"/>
</svg>
