<svg width="128" height="128" viewBox="0 0 128 128" fill="none" xmlns="http://www.w3.org/2000/svg">
<rect width="128" height="128" rx="26.839" fill="#181818"/>
<g clip-path="url(#clip0_xverse)">
<path d="M91.13 90.46V80.33C91.13 79.95 90.97 79.57 90.69 79.29L48.43 37.02C48.15 36.74 47.77 36.58 47.38 36.58H37.25C36.76 36.58 36.36 36.98 36.36 37.47V46.69C36.36 47.08 36.52 47.46 36.80 47.74L52.17 63.11C52.52 63.47 52.52 64.05 52.17 64.40L36.63 79.94C36.45 80.12 36.36 80.36 36.36 80.60V90.46C36.36 90.96 36.76 91.35 37.25 91.35H54.05C54.54 91.35 54.94 90.96 54.94 90.46V84.30C54.94 84.06 55.03 83.82 55.22 83.64L63.33 75.53C63.68 75.18 64.26 75.18 64.61 75.53L80.15 91.07C80.43 91.35 80.81 91.50 81.20 91.50H90.24C90.73 91.50 91.13 91.10 91.13 90.61L91.13 90.46Z" fill="white"/>
<path d="M69.00 49.77H76.81C77.30 49.77 77.70 50.17 77.70 50.66V58.47C77.70 59.28 78.66 59.68 79.22 59.12L91.22 47.14C91.39 46.97 91.48 46.74 91.48 46.50V37.47C91.48 36.98 91.08 36.58 90.59 36.58L80.35 36.57C80.11 36.57 79.88 36.66 79.71 36.83L67.73 48.79C67.17 49.35 67.57 50.32 68.38 50.32H69.00L69.00 49.77Z" fill="#EE7A30"/>
</g>
<defs>
<clipPath id="clip0_xverse">
<rect width="55.12" height="55.12" fill="white" transform="translate(36.36 36.44)"/>
</clipPath>
</defs>
</svg>
