<svg
   version="1.1"
   width="480"
   height="480"
   viewBox="0 0 480 480"
   id="stampchain.io"
   xmlns="http://www.w3.org/2000/svg"
   fill="url(#stampchainGradient)">
   <defs>
      <linearGradient
      id="stampchainGradient"
      >
      <stop offset="0%" stop-color="#220033" />
      <stop offset="33%" stop-color="#440066" />
      <stop offset="66%" stop-color="#660099" />
      <stop offset="100%" stop-color="#8800CC" />
      </linearGradient>
   </defs>
  <g id="stamp">
    <path
       id="handle"
       d="m 239.88458,30 c -29.82389,-1e-6 -53.99999,24.035333 -53.99999,53.685587 0,7.362022 1.5015,15.722603 4.20953,24.129923 v -0.1264 c 4.10024,12.72964 10.97212,25.56663 19.6255,35.22254 a 24.896251,39.686643 0 0 1 1.97566,2.10806 c 0.11667,0.11993 0.23678,0.23324 0.35406,0.352 a 24.896251,39.686643 0 0 1 9.78243,31.46146 24.896251,39.686643 0 0 1 -24.04433,39.57479 H 175.69528 A 25.696468,23.843751 0 0 0 150,240.25202 v 9.27626 A 2.6651143,2.4729595 0 0 0 152.66421,252 H 327.47077 A 2.5307096,2.3482453 0 0 0 330,249.65273 v -8.36807 a 26.809707,24.876726 0 0 0 -26.8083,-24.8767 h -20.97914 a 24.896251,39.686643 0 0 1 -24.04433,-39.57479 24.896251,39.686643 0 0 1 10.29102,-32.04295 c 9.57787,-9.98316 17.14005,-23.95155 21.44664,-37.73314 v 0.1264 c 2.56037,-8.19349 3.98066,-16.320541 3.98066,-23.497893 C 293.88655,54.035333 269.7085,29.999999 239.88458,30 Z" />
    <path
       id="base"
       d="M 123.625,258 A 13.625631,13.625631 0 0 0 110,271.625 v 41.78906 A 4.5857864,4.5857864 0 0 0 114.58594,318 H 365.41406 A 4.5857864,4.5857864 0 0 0 370,313.41406 V 271.625 A 13.625631,13.625631 0 0 0 356.375,258 Z" />
    <path
       id="rubber"
       d="M 122.16621,324 H 357.86306 A 2.1369422,2.1369422 0 0 1 360,326.13694 v 13.90958 A 7.9534763,7.9534763 0 0 1 352.04652,348 H 127.92421 A 7.9242133,7.9242133 0 0 1 120,340.07579 V 326.16621 A 2.1662053,2.1662053 0 0 1 122.16621,324 Z" />      
  </g>
  <g id="chains">
    <path
       id="chain1"
       d="m 107,450 c -24.852813,0 -44.999999,-20.14719 -45,-45 10e-7,-24.85281 20.147187,-45 45,-45 h 66 c 3.95992,0 7.77897,0.56292 11.4375,1.52344 -8.6411,4.1849 -15.7494,11.01634 -20.22656,19.48437 H 107 c -13.25483,10e-6 -23.999999,10.74517 -24,24 10e-7,13.25483 10.74517,23.99999 24,24 h 61.06641 4.15234 H 173 c 6.78008,0 12.89132,-2.82303 17.25586,-7.34375 0.41205,-0.42679 0.7958,-0.87981 1.17578,-1.33593 3.46364,-4.15777 5.56836,-9.48567 5.56836,-15.32032 0,-4.52046 -1.39841,-8.67694 -3.57422,-12.2832 -1.3971,-1.8585 -1.37516,-1.85102 -1.09961,-2.15039 4.38571,-4.76495 12.68727,-6.56641 19.67383,-6.56641 h 0.76367 C 216.09558,390.27298 218,397.40727 218,405 c 0,7.59215 -1.89865,14.73413 -5.21875,21.00781 -1.078,2.03699 -2.31631,3.97331 -3.68359,5.80664 -4.31197,5.78172 -9.97839,10.48665 -16.53516,13.66211 -1.0457,0.50644 -2.13903,0.92514 -3.22656,1.35352 C 184.26448,448.82771 178.78171,450 173,450 Z" />
    <path
       id="chain2"
       d="m 207.00003,450.00001 c -0.96699,0 -1.92509,-0.0368 -2.875,-0.10156 -0.0568,-0.004 -0.11316,-0.008 -0.16992,-0.0117 -2.88014,-0.20775 -5.68081,-0.6982 -8.39258,-1.41016 8.63555,-4.18221 15.73914,-11.00826 20.2168,-19.46875 h 52.28711 4.15234 0.78125 c 3.24018,0 6.31969,-0.65951 9.13672,-1.82617 0.0739,-0.0305 0.15105,-0.0547 0.22461,-0.0859 0.49462,-0.2107 0.97032,-0.45492 1.44726,-0.69726 0.23518,-0.11901 0.47834,-0.22317 0.70899,-0.34961 0.36839,-0.20273 0.71791,-0.43311 1.07422,-0.6543 0.31767,-0.1965 0.64162,-0.38307 0.94922,-0.59375 0.26734,-0.18369 0.51792,-0.38795 0.77734,-0.58203 0.37742,-0.28155 0.75735,-0.55856 1.11719,-0.86133 0.1898,-0.16005 0.36605,-0.33426 0.55078,-0.5 0.4011,-0.35918 0.79968,-0.72039 1.17578,-1.10547 0.0299,-0.0307 0.0641,-0.0571 0.0937,-0.0879 0.14996,-0.15532 0.28409,-0.32517 0.42773,-0.48633 0.25371,-0.27703 0.51718,-0.54524 0.75782,-0.83398 0.82262,-0.98706 1.54928,-2.05228 2.20703,-3.16406 0.0499,-0.084 0.10342,-0.16535 0.15234,-0.25 0.26607,-0.46254 0.51064,-0.93669 0.7461,-1.41797 0.0922,-0.18742 0.18404,-0.37434 0.27148,-0.56445 0.18874,-0.4129 0.36564,-0.83081 0.53125,-1.25586 0.11552,-0.29446 0.22213,-0.59259 0.32617,-0.89258 0.12748,-0.3702 0.25171,-0.741 0.36133,-1.11914 0.11331,-0.38794 0.20889,-0.78188 0.30273,-1.17774 0.0733,-0.31122 0.1519,-0.61978 0.21289,-0.93554 0.0939,-0.48248 0.16042,-0.9743 0.22461,-1.4668 0.0343,-0.26493 0.0818,-0.5254 0.10743,-0.79297 0.0728,-0.75704 0.11523,-1.52227 0.11523,-2.29883 0,-0.66661 -0.0388,-1.32246 -0.0977,-1.97265 -0.0358,-0.44216 -0.091,-0.87745 -0.15039,-1.3125 -0.003,-0.0228 -0.006,-0.0456 -0.01,-0.0684 -0.5684,-4.07293 -2.15477,-7.81037 -4.5,-10.96094 0.0259,-0.0379 0.0433,-0.0749 0.084,-0.11914 4.38571,-4.76495 12.68727,-6.56641 19.67383,-6.56641 h 0.76367 c 2.06843,3.88939 3.5854,8.11515 4.43945,12.57617 0.0167,0.0882 0.0307,0.1772 0.0469,0.26563 0.13693,0.73947 0.25163,1.48641 0.35156,2.23828 0.0263,0.20029 0.0525,0.40045 0.0762,0.60156 0.0777,0.65277 0.13639,1.31142 0.18555,1.97266 0.0177,0.24043 0.0408,0.47923 0.0547,0.7207 0.0504,0.86658 0.082,1.73767 0.082,2.61719 0,0.87946 -0.0318,1.75046 -0.082,2.61719 -0.0143,0.24932 -0.0383,0.49592 -0.0566,0.74414 -0.0473,0.63333 -0.1024,1.26496 -0.17578,1.89062 -0.0286,0.24628 -0.0611,0.49128 -0.0937,0.73633 -0.0922,0.68698 -0.19737,1.37014 -0.32032,2.04688 -0.027,0.14983 -0.0535,0.2999 -0.082,0.44922 -0.85359,4.43979 -2.35717,8.6478 -4.4082,12.52343 -1.078,2.03699 -2.31631,3.97331 -3.68359,5.80664 -4.31197,5.78172 -9.97839,10.48665 -16.53516,13.66211 -1.0457,0.50644 -2.13903,0.92514 -3.22656,1.35352 -5.07146,1.99763 -10.55423,3.16992 -16.33594,3.16992 z M 167.23636,425.9922 c -2.06843,-3.88939 -3.58539,-8.11515 -4.43945,-12.57617 -0.0167,-0.0883 -0.0307,-0.1772 -0.0469,-0.26563 -0.13692,-0.73947 -0.25163,-1.48641 -0.35156,-2.23828 -0.0263,-0.20029 -0.0525,-0.40045 -0.0762,-0.60156 -0.0777,-0.65277 -0.13639,-1.31142 -0.18555,-1.97266 -0.0177,-0.24043 -0.0408,-0.47923 -0.0547,-0.7207 -0.0504,-0.86658 -0.082,-1.73767 -0.082,-2.61719 0,-0.87946 0.0318,-1.75046 0.082,-2.61719 0.0143,-0.24932 0.0383,-0.49592 0.0566,-0.74414 0.0473,-0.63333 0.1024,-1.26496 0.17579,-1.89062 0.0286,-0.24628 0.0611,-0.49128 0.0937,-0.73633 0.0922,-0.68698 0.19736,-1.37014 0.32031,-2.04688 0.027,-0.14983 0.0535,-0.2999 0.082,-0.44921 0.85359,-4.4398 2.35718,-8.64781 4.4082,-12.52344 1.078,-2.03699 2.31632,-3.97331 3.6836,-5.80664 4.31197,-5.78172 9.97838,-10.48665 16.53515,-13.66211 1.0457,-0.50644 2.13904,-0.92514 3.22656,-1.35352 4.43753,-1.74792 9.18958,-2.86354 14.18165,-3.11523 0.71397,-0.0337 1.43199,-0.0547 2.15429,-0.0547 h 66 c 0.96699,0 1.92509,0.0368 2.875,0.10156 0.0568,0.004 0.11316,0.008 0.16992,0.0117 2.88014,0.20775 5.68082,0.6982 8.39258,1.41016 -8.63555,4.18221 -15.73914,11.00826 -20.2168,19.46875 h -52.2871 -4.15235 -0.78125 c -3.24018,0 -6.31968,0.65951 -9.13672,1.82617 -0.0739,0.0305 -0.15105,0.0547 -0.22461,0.0859 -0.49462,0.2107 -0.97032,0.45492 -1.44726,0.69726 -0.23518,0.11901 -0.47833,0.22317 -0.70899,0.34961 -0.36838,0.20273 -0.7179,0.43311 -1.07421,0.6543 -0.31768,0.1965 -0.64163,0.38307 -0.94922,0.59375 -0.26735,0.18369 -0.51792,0.38795 -0.77735,0.58203 -0.37741,0.28155 -0.75735,0.55856 -1.11718,0.86133 -0.18981,0.16005 -0.36605,0.33426 -0.55079,0.5 -0.4011,0.35918 -0.79968,0.72039 -1.17578,1.10547 -0.0299,0.0307 -0.064,0.0571 -0.0937,0.0879 -0.14995,0.15532 -0.28409,0.32517 -0.42773,0.48633 -0.25106,0.28166 -0.50635,0.55947 -0.74805,0.84961 -0.003,-0.005 -0.007,-0.0104 -0.01,-0.0156 -0.82263,0.98706 -1.54929,2.05228 -2.20704,3.16406 -0.0499,0.084 -0.10342,0.16535 -0.15234,0.25 -0.26606,0.46254 -0.51063,0.93669 -0.74609,1.41797 -0.0922,0.18742 -0.18405,0.37434 -0.27149,0.56445 -0.18874,0.4129 -0.36564,0.83081 -0.53125,1.25586 -0.11552,0.29446 -0.22213,0.59259 -0.32617,0.89258 -0.12748,0.3702 -0.2517,0.741 -0.36133,1.11914 -0.11331,0.38794 -0.20889,0.78188 -0.30273,1.17774 -0.0733,0.31122 -0.15189,0.61978 -0.21289,0.93554 -0.0938,0.48248 -0.16042,0.9743 -0.22461,1.4668 -0.0343,0.26493 -0.0818,0.5254 -0.10742,0.79297 -0.0728,0.75704 -0.11524,1.52227 -0.11524,2.29883 0,0.005 0,0.0104 0,0.0156 0,0.0171 0.002,0.0336 0.002,0.0508 0.002,0.64375 0.0388,1.27787 0.0957,1.90625 0.37305,4.60851 2.05149,8.83733 4.66015,12.3418 -0.0259,0.0379 -0.0433,0.0749 -0.084,0.11914 -4.38576,4.76495 -12.68727,6.56641 -19.67383,6.56641 z" />
    <path
       id="chain3"
       d="m 307,450 c -3.95992,0 -7.77897,-0.56292 -11.4375,-1.52344 8.6411,-4.1849 15.7494,-11.01634 20.22656,-19.48437 H 373 c 13.25483,-10e-6 24,-10.74517 24,-24 0,-13.25483 -10.74517,-23.99999 -24,-24 H 311.93359 307.78125 307 c -6.78008,0 -12.89132,2.82303 -17.25586,7.34375 -0.41205,0.42679 -0.7958,0.8798 -1.17578,1.33594 -3.46364,4.15777 -5.56836,9.48566 -5.56836,15.32031 0,4.52046 1.39841,8.67694 3.57422,12.2832 1.3971,1.8585 1.37516,1.85102 1.09961,2.15039 -4.38571,4.76495 -12.68727,6.56641 -19.67383,6.56641 h -0.76367 C 263.90442,419.72702 262,412.59273 262,405 c 0,-7.59215 1.89865,-14.73413 5.21875,-21.00781 1.078,-2.03699 2.31631,-3.97331 3.68359,-5.80664 4.31197,-5.78172 9.97839,-10.48665 16.53516,-13.66211 1.0457,-0.50644 2.13903,-0.92514 3.22656,-1.35352 C 295.73552,361.17229 301.21829,360 307,360 h 66 c 24.85281,0 45,20.14719 45,45 0,24.85281 -20.14719,45 -45,45 z"
       />
  </g>
</svg>
