<svg width="49" height="49" viewBox="0 0 49 49" fill="none" xmlns="http://www.w3.org/2000/svg">
<path d="M19.1407 26.7965C19.1407 27.0994 19.0509 27.3954 18.8827 27.6472C18.7144 27.899 18.4753 28.0953 18.1955 28.2112C17.9157 28.3271 17.6078 28.3574 17.3107 28.2983C17.0137 28.2392 16.7409 28.0934 16.5267 27.8793C16.3126 27.6651 16.1667 27.3923 16.1076 27.0952C16.0486 26.7982 16.0789 26.4903 16.1948 26.2105C16.3107 25.9307 16.5069 25.6916 16.7587 25.5233C17.0106 25.3551 17.3066 25.2653 17.6095 25.2653C18.0156 25.2653 18.4051 25.4266 18.6922 25.7137C18.9794 26.0009 19.1407 26.3904 19.1407 26.7965ZM31.3907 25.2653C31.0879 25.2653 30.7918 25.3551 30.54 25.5233C30.2882 25.6916 30.0919 25.9307 29.976 26.2105C29.8601 26.4903 29.8298 26.7982 29.8889 27.0952C29.948 27.3923 30.0938 27.6651 30.308 27.8793C30.5221 28.0934 30.795 28.2392 31.092 28.2983C31.389 28.3574 31.6969 28.3271 31.9767 28.2112C32.2565 28.0953 32.4957 27.899 32.6639 27.6472C32.8322 27.3954 32.922 27.0994 32.922 26.7965C32.922 26.3904 32.7606 26.0009 32.4735 25.7137C32.1863 25.4266 31.7968 25.2653 31.3907 25.2653ZM45.3308 36.2233L32.5066 41.9099C32.2044 42.0396 31.8784 42.1048 31.5496 42.1013C31.076 42.1021 30.6136 41.958 30.2242 41.6884C29.8349 41.4188 29.5373 41.0366 29.3714 40.5931L27.62 35.8443C26.5941 35.9304 25.5509 35.9763 24.4924 35.9763C23.434 35.9763 22.387 35.9304 21.3649 35.8443L19.6135 40.5931C19.4493 41.0368 19.1534 41.4198 18.7655 41.6907C18.3775 41.9617 17.9161 42.1076 17.4429 42.109C17.1141 42.1124 16.7882 42.0472 16.4859 41.9176L3.66169 36.2309C3.16649 36.0124 2.76436 35.6261 2.52623 35.14C2.2881 34.6539 2.22927 34.0994 2.36013 33.5742L8.02001 11.2926C8.13176 10.8571 8.36826 10.4637 8.70047 10.1607C9.03268 9.85778 9.44613 9.65843 9.89005 9.58717L16.7922 8.45404C17.3638 8.36112 17.9495 8.48428 18.4353 8.79953C18.9211 9.11479 19.2722 9.59957 19.4202 10.1595L20.2088 13.2641C23.0602 12.9349 25.94 12.9349 28.7914 13.2641L29.58 10.1595C29.728 9.59957 30.0791 9.11479 30.5649 8.79953C31.0507 8.48428 31.6364 8.36112 32.208 8.45404L39.1101 9.58717C39.5541 9.65843 39.9675 9.85778 40.2997 10.1607C40.6319 10.4637 40.8684 10.8571 40.9802 11.2926L46.6324 33.5685C46.7628 34.0934 46.7037 34.6475 46.4656 35.1331C46.2275 35.6188 45.8256 36.0048 45.3308 36.2233ZM45.1394 33.9436L39.4968 11.6754C39.4581 11.5273 39.3767 11.3938 39.2627 11.2917C39.1486 11.1896 39.007 11.1233 38.8556 11.1012L31.9649 9.96232C31.7707 9.92975 31.5714 9.97047 31.4055 10.0766C31.2396 10.1827 31.1191 10.3466 31.0672 10.5365L30.3188 13.4708C31.5246 13.6625 32.7184 13.9232 33.8943 14.2517C33.9934 14.2767 34.0866 14.3214 34.1682 14.3829C34.2498 14.4445 34.3182 14.5218 34.3695 14.6103C34.4207 14.6988 34.4538 14.7966 34.4666 14.898C34.4794 14.9995 34.4718 15.1024 34.4442 15.2009C34.4166 15.2993 34.3695 15.3912 34.3058 15.4712C34.2421 15.5512 34.163 15.6176 34.0732 15.6665C33.9834 15.7154 33.8848 15.7458 33.783 15.7559C33.6813 15.7661 33.5786 15.7558 33.4809 15.7256C30.5539 14.9305 27.5331 14.5339 24.5001 14.5465C21.4671 14.5339 18.4463 14.9305 15.5193 15.7256C15.4216 15.7558 15.3189 15.7661 15.2172 15.7559C15.1154 15.7458 15.0168 15.7154 14.927 15.6665C14.8372 15.6176 14.7581 15.5512 14.6944 15.4712C14.6307 15.3912 14.5836 15.2993 14.556 15.2009C14.5284 15.1024 14.5208 14.9995 14.5336 14.898C14.5464 14.7966 14.5794 14.6988 14.6307 14.6103C14.6819 14.5218 14.7504 14.4445 14.832 14.3829C14.9136 14.3214 15.0067 14.2767 15.1059 14.2517C16.2818 13.9232 17.4756 13.6625 18.6813 13.4708L17.9368 10.527C17.8849 10.337 17.7644 10.1731 17.5985 10.067C17.4326 9.9609 17.2333 9.92018 17.0391 9.95275L10.1446 11.1012C9.99453 11.1247 9.85459 11.1916 9.74202 11.2936C9.62946 11.3956 9.54918 11.5283 9.51107 11.6754L3.85118 33.9436C3.8097 34.1182 3.83086 34.3018 3.91098 34.4624C3.99109 34.623 4.12507 34.7503 4.28951 34.8222L17.1137 40.5088C17.2148 40.5533 17.3239 40.5762 17.4343 40.5762C17.5447 40.5762 17.6539 40.5533 17.7549 40.5088C17.8527 40.4693 17.9413 40.4099 18.0151 40.3345C18.0889 40.2591 18.1463 40.1692 18.1837 40.0705L19.8011 35.6912C18.2152 35.492 16.6459 35.1772 15.1059 34.7494C15.009 34.7223 14.9184 34.6763 14.8392 34.6142C14.7601 34.552 14.694 34.4749 14.6447 34.3871C14.5953 34.2994 14.5638 34.2029 14.5518 34.1029C14.5398 34.003 14.5476 33.9017 14.5747 33.8048C14.6019 33.7079 14.6478 33.6173 14.71 33.5382C14.7722 33.4591 14.8493 33.393 14.937 33.3436C15.0247 33.2943 15.1213 33.2628 15.2212 33.2507C15.3211 33.2387 15.4224 33.2465 15.5193 33.2737C18.4463 34.0687 21.4671 34.4653 24.5001 34.4528C27.5331 34.4653 30.5539 34.0687 33.4809 33.2737C33.6766 33.2189 33.886 33.244 34.0632 33.3436C34.2403 33.4432 34.3706 33.6091 34.4255 33.8048C34.4803 34.0005 34.4551 34.21 34.3555 34.3871C34.2559 34.5643 34.09 34.6946 33.8943 34.7494C32.3543 35.1772 30.785 35.492 29.1991 35.6912L30.8165 40.0705C30.853 40.1701 30.9098 40.2609 30.9833 40.3374C31.0568 40.4138 31.1453 40.4742 31.2433 40.5146C31.3444 40.559 31.4536 40.582 31.5639 40.582C31.6743 40.582 31.7835 40.559 31.8845 40.5146L44.7088 34.8279C44.8747 34.7562 45.01 34.6281 45.0906 34.4663C45.1711 34.3044 45.1918 34.1193 45.149 33.9436H45.1394Z" fill="#AA00FF"/>
</svg>
