<svg width="41" height="41" viewBox="0 0 41 41" fill="none" xmlns="http://www.w3.org/2000/svg">
<path d="M32.6623 12.1975C33.0805 10.986 33.2329 9.69863 33.109 8.42295C32.9852 7.14727 32.5881 5.91322 31.9448 4.80472C31.8886 4.70743 31.8078 4.62662 31.7106 4.5704C31.6133 4.51418 31.503 4.48453 31.3906 4.48441C29.9431 4.4803 28.5163 4.828 27.2329 5.49757C25.9496 6.16715 24.8481 7.13854 24.0234 8.32816H19.5391C18.7144 7.13854 17.6129 6.16715 16.3296 5.49757C15.0462 4.828 13.6194 4.4803 12.1719 4.48441C12.0595 4.48453 11.9492 4.51418 11.8519 4.5704C11.7547 4.62662 11.6739 4.70743 11.6177 4.80472C10.9744 5.91322 10.5773 7.14727 10.4535 8.42295C10.3296 9.69863 10.482 10.986 10.9002 12.1975C10.07 13.5377 9.62352 15.0799 9.60938 16.6563V17.9375C9.61192 20.1455 10.4902 22.2623 12.0514 23.8236C13.6127 25.3849 15.7295 26.2631 17.9375 26.2657H18.1633C17.4934 26.8055 16.9529 27.4885 16.5812 28.2644C16.2096 29.0404 16.0163 29.8897 16.0156 30.75V32.6719H11.5312C10.3419 32.6719 9.2013 32.1995 8.36032 31.3585C7.51933 30.5175 7.04688 29.3769 7.04688 28.1875C7.04688 26.6584 6.43943 25.1919 5.35816 24.1106C4.2769 23.0294 2.81039 22.4219 1.28125 22.4219C1.11135 22.4219 0.9484 22.4894 0.82826 22.6095C0.708119 22.7297 0.640625 22.8926 0.640625 23.0625C0.640625 23.2324 0.708119 23.3954 0.82826 23.5155C0.9484 23.6357 1.11135 23.7032 1.28125 23.7032C2.47058 23.7032 3.6112 24.1756 4.45218 25.0166C5.29317 25.8576 5.76562 26.9982 5.76562 28.1875C5.76562 29.7167 6.37307 31.1832 7.45434 32.2644C8.5356 33.3457 10.0021 33.9532 11.5312 33.9532H16.0156V37.1563C16.0156 37.3262 16.0831 37.4891 16.2033 37.6093C16.3234 37.7294 16.4863 37.7969 16.6562 37.7969C16.8262 37.7969 16.9891 37.7294 17.1092 37.6093C17.2294 37.4891 17.2969 37.3262 17.2969 37.1563V30.75C17.2969 29.5607 17.7693 28.4201 18.6103 27.5791C19.4513 26.7381 20.5919 26.2657 21.7812 26.2657C22.9706 26.2657 24.1112 26.7381 24.9522 27.5791C25.7932 28.4201 26.2656 29.5607 26.2656 30.75V37.1563C26.2656 37.3262 26.3331 37.4891 26.4533 37.6093C26.5734 37.7294 26.7363 37.7969 26.9062 37.7969C27.0762 37.7969 27.2391 37.7294 27.3592 37.6093C27.4794 37.4891 27.5469 37.3262 27.5469 37.1563V30.75C27.5462 29.8897 27.3529 29.0404 26.9813 28.2644C26.6096 27.4885 26.0691 26.8055 25.3992 26.2657H25.625C27.833 26.2631 29.9498 25.3849 31.5111 23.8236C33.0723 22.2623 33.9506 20.1455 33.9531 17.9375V16.6563C33.939 15.0799 33.4925 13.5377 32.6623 12.1975ZM32.6719 17.9375C32.6698 19.8058 31.9266 21.597 30.6056 22.9181C29.2845 24.2392 27.4933 24.9823 25.625 24.9844H17.9375C16.0692 24.9823 14.278 24.2392 12.9569 22.9181C11.6359 21.597 10.8927 19.8058 10.8906 17.9375V16.6563C10.9072 15.2359 11.3362 13.851 12.1254 12.67C12.1905 12.5831 12.2325 12.481 12.2473 12.3735C12.2622 12.2659 12.2495 12.1563 12.2103 12.055C11.8187 11.0441 11.6462 9.96157 11.7042 8.87902C11.7622 7.79647 12.0493 6.73857 12.5466 5.77527C13.7736 5.83221 14.9688 6.18353 16.0314 6.79957C17.094 7.4156 17.9927 8.27827 18.6518 9.31472C18.7098 9.40517 18.7897 9.47956 18.884 9.53106C18.9783 9.58256 19.0841 9.6095 19.1915 9.60941H24.371C24.4784 9.6095 24.5842 9.58256 24.6785 9.53106C24.7728 9.47956 24.8527 9.40517 24.9107 9.31472C25.5698 8.27827 26.4685 7.4156 27.5311 6.79957C28.5937 6.18353 29.7889 5.83221 31.0159 5.77527C31.5132 6.73857 31.8003 7.79647 31.8583 8.87902C31.9163 9.96157 31.7438 11.0441 31.3522 12.055C31.3133 12.1561 31.3007 12.2654 31.3156 12.3726C31.3304 12.4799 31.3722 12.5817 31.4371 12.6684C32.2258 13.8502 32.6548 15.2355 32.6719 16.6563V17.9375Z" fill="#660099"/>
</svg>
