<svg width="46" height="46" viewBox="0 0 46 46" fill="none" xmlns="http://www.w3.org/2000/svg">
<path d="M40.6581 5.24995C40.5341 5.1428 40.3832 5.0716 40.2216 5.04404C40.0601 5.01649 39.8941 5.03363 39.7416 5.09362L3.32618 19.3446C2.95496 19.4887 2.64063 19.7496 2.43057 20.0879C2.22052 20.4262 2.12612 20.8236 2.1616 21.2202C2.19709 21.6169 2.36054 21.9912 2.62731 22.2869C2.89408 22.5825 3.24973 22.7834 3.64063 22.8593L13.6564 24.8251V35.937C13.6564 36.3669 13.7848 36.787 14.0253 37.1433C14.2657 37.4997 14.6072 37.7761 15.0059 37.9369C15.2624 38.0398 15.5362 38.0929 15.8127 38.0932C16.102 38.0926 16.3882 38.0337 16.6543 37.9201C16.9204 37.8065 17.161 37.6405 17.3616 37.432L22.3928 32.221L30.1194 38.9971C30.5111 39.3425 31.0149 39.5341 31.5371 39.5361C31.7652 39.5352 31.9918 39.4994 32.2092 39.4301C32.5649 39.3175 32.8848 39.1135 33.1371 38.8386C33.3893 38.5636 33.565 38.2273 33.6467 37.8632L40.9456 6.13042C40.9821 5.97139 40.9747 5.8054 40.924 5.65028C40.8734 5.49516 40.7814 5.35677 40.6581 5.24995ZM3.59392 21.0912C3.58338 21.0043 3.60296 20.9164 3.64939 20.8421C3.69582 20.7679 3.7663 20.7119 3.84907 20.6833L35.2315 8.40167L14.2081 23.4685L3.91915 21.4488C3.83194 21.436 3.75186 21.3934 3.69255 21.3282C3.63325 21.263 3.59839 21.1792 3.59392 21.0912ZM16.3284 36.4329C16.229 36.5353 16.1014 36.6058 15.9619 36.6354C15.8223 36.665 15.6771 36.6524 15.5447 36.5992C15.4123 36.546 15.2988 36.4547 15.2185 36.3367C15.1382 36.2188 15.0948 36.0796 15.0939 35.937V25.8206L21.3075 31.2651L16.3284 36.4329ZM32.2451 37.5362C32.2173 37.6582 32.1581 37.7709 32.0734 37.863C31.9887 37.9551 31.8814 38.0235 31.7622 38.0615C31.6429 38.0994 31.5158 38.1056 31.3935 38.0793C31.2711 38.053 31.1577 37.9953 31.0645 37.9117L15.5306 24.2896L39.1954 7.33073L32.2451 37.5362Z" fill="#660099"/>
</svg>
