<svg width="50" height="50" viewBox="0 0 50 50" fill="none" xmlns="http://www.w3.org/2000/svg">
<path d="M41.2831 41.7675L28.7362 22.0507L41.2108 8.33778C41.3502 8.18237 41.4221 7.97799 41.4107 7.76957C41.3994 7.56116 41.3057 7.36579 41.1503 7.22645C40.9949 7.08711 40.7905 7.0152 40.5821 7.02656C40.3737 7.03791 40.1783 7.13159 40.0389 7.28699L27.8671 20.6835L19.41 7.39246C19.3393 7.28152 19.2417 7.19024 19.1263 7.12707C19.0109 7.06391 18.8814 7.03091 18.7499 7.03113H9.37488C9.23489 7.03124 9.0975 7.06896 8.97707 7.14036C8.85665 7.21175 8.75762 7.31418 8.69035 7.43696C8.62308 7.55973 8.59003 7.69832 8.59466 7.83823C8.59929 7.97815 8.64143 8.11425 8.71668 8.23231L21.2636 27.9491L8.78895 41.662C8.71995 41.7389 8.66679 41.8287 8.63249 41.9262C8.59819 42.0237 8.58343 42.127 8.58906 42.2302C8.59468 42.3334 8.62057 42.4345 8.66526 42.5277C8.70994 42.6208 8.77255 42.7043 8.84949 42.7733C8.92644 42.8423 9.01622 42.8955 9.11371 42.9298C9.21121 42.9641 9.3145 42.9788 9.4177 42.9732C9.52089 42.9676 9.62197 42.9417 9.71516 42.897C9.80835 42.8523 9.89183 42.7897 9.96082 42.7128L22.1405 29.3163L30.5975 42.6073C30.6675 42.7171 30.7639 42.8077 30.8778 42.8708C30.9917 42.9339 31.1196 42.9676 31.2499 42.9686H40.6249C40.7649 42.9685 40.9023 42.9308 41.0227 42.8594C41.1431 42.788 41.2421 42.6856 41.3094 42.5628C41.3767 42.44 41.4097 42.3014 41.4051 42.1615C41.4005 42.0216 41.3583 41.8855 41.2831 41.7675ZM31.6796 41.4061L10.7987 8.59363H18.3202L39.2011 41.4061H31.6796Z" fill="#660099"/>
</svg>
