<svg width="17" height="17" viewBox="0 0 17 17" fill="none" xmlns="http://www.w3.org/2000/svg">
<path d="M13.8457 13.2469C13.9954 13.3966 14.0795 13.5996 14.0795 13.8113C14.0795 14.023 13.9954 14.2261 13.8457 14.3758C13.696 14.5255 13.4929 14.6096 13.2812 14.6096C13.0695 14.6096 12.8665 14.5255 12.7168 14.3758L7.40426 9.06326C7.32997 8.98922 7.27103 8.90126 7.23081 8.80439C7.19059 8.70753 7.16988 8.60368 7.16988 8.4988C7.16988 8.39392 7.19059 8.29008 7.23081 8.19321C7.27103 8.09635 7.32997 8.00838 7.40426 7.93435L12.7168 2.62185C12.8665 2.47215 13.0695 2.38805 13.2812 2.38805C13.4929 2.38805 13.696 2.47215 13.8457 2.62185C13.9954 2.77155 14.0795 2.97459 14.0795 3.1863C14.0795 3.39802 13.9954 3.60105 13.8457 3.75076L9.09828 8.49814L13.8457 13.2469ZM3.78578 8.49814L8.53516 3.74943C8.68486 3.59973 8.76896 3.39669 8.76896 3.18498C8.76896 2.97327 8.68486 2.77023 8.53516 2.62052C8.38546 2.47082 8.18242 2.38672 7.97071 2.38672C7.759 2.38672 7.55596 2.47082 7.40625 2.62052L2.09375 7.93302C2.01946 8.00706 1.96052 8.09502 1.9203 8.19189C1.88008 8.28875 1.85938 8.3926 1.85938 8.49748C1.85937 8.60236 1.88008 8.7062 1.9203 8.80307C1.96052 8.89993 2.01946 8.9879 2.09375 9.06193L7.40625 14.3744C7.48038 14.4486 7.56838 14.5074 7.66523 14.5475C7.76208 14.5876 7.86588 14.6082 7.97071 14.6082C8.07553 14.6082 8.17934 14.5876 8.27619 14.5475C8.37304 14.5074 8.46103 14.4486 8.53516 14.3744C8.60928 14.3003 8.66808 14.2123 8.7082 14.1155C8.74832 14.0186 8.76896 13.9148 8.76896 13.81C8.76896 13.7051 8.74832 13.6013 8.7082 13.5045C8.66808 13.4076 8.60928 13.3196 8.53516 13.2455L3.78578 8.49814Z" fill="#080808"/>
</svg>
