<svg xmlns="http://www.w3.org/2000/svg" width="32" height="32" viewBox="0 0 32 32" fill="#000000">
  <path d="M23.0613 17.0612L13.0613 27.0612C12.7795 27.343 12.3973 27.5013 11.9988 27.5013C11.6002 27.5013 11.218 27.343 10.9363 27.0612C10.6545 26.7794 10.4962 26.3972 10.4962 25.9987C10.4962 25.6002 10.6545 25.218 10.9363 24.9362L19.875 15.9999L10.9388 7.0612C10.7992 6.92167 10.6885 6.75602 10.613 6.57372C10.5375 6.39141 10.4987 6.19602 10.4987 5.9987C10.4987 5.80137 10.5375 5.60598 10.613 5.42367C10.6885 5.24137 10.7992 5.07573 10.9388 4.9362C11.0783 4.79667 11.2439 4.68599 11.4262 4.61047C11.6085 4.53496 11.8039 4.49609 12.0013 4.49609C12.1986 4.49609 12.394 4.53496 12.5763 4.61047C12.7586 4.68599 12.9242 4.79667 13.0638 4.9362L23.0638 14.9362C23.2034 15.0757 23.3142 15.2414 23.3897 15.4239C23.4652 15.6063 23.5039 15.8018 23.5037 15.9992C23.5035 16.1966 23.4643 16.3921 23.3883 16.5743C23.3124 16.7565 23.2013 16.922 23.0613 17.0612Z"/>
</svg>