<svg width="17" height="17" viewBox="0 0 17 17" fill="none" xmlns="http://www.w3.org/2000/svg">
<path d="M9.59513 9.06193L4.28263 14.3744C4.20851 14.4486 4.12051 14.5074 4.02366 14.5475C3.92681 14.5876 3.82301 14.6082 3.71818 14.6082C3.61335 14.6082 3.50955 14.5876 3.4127 14.5475C3.31585 14.5074 3.22785 14.4486 3.15373 14.3744C3.0796 14.3003 3.0208 14.2123 2.98069 14.1155C2.94057 14.0186 2.91992 13.9148 2.91992 13.81C2.91992 13.7051 2.94057 13.6013 2.98069 13.5045C3.0208 13.4076 3.0796 13.3196 3.15373 13.2455L7.90244 8.49814L3.15505 3.74943C3.00535 3.59973 2.92125 3.39669 2.92125 3.18498C2.92125 2.97327 3.00535 2.77023 3.15505 2.62052C3.30476 2.47082 3.5078 2.38672 3.71951 2.38672C3.93122 2.38672 4.13426 2.47082 4.28396 2.62052L9.59646 7.93302C9.67066 8.00714 9.72951 8.09518 9.76961 8.19209C9.80972 8.289 9.8303 8.39287 9.83017 8.49775C9.83005 8.60263 9.80923 8.70646 9.76889 8.80327C9.72856 8.90008 9.66951 8.98798 9.59513 9.06193ZM14.9076 7.93302L9.59513 2.62052C9.52101 2.5464 9.43301 2.4876 9.33616 2.44748C9.23931 2.40737 9.13551 2.38672 9.03068 2.38672C8.92585 2.38672 8.82205 2.40737 8.7252 2.44748C8.62835 2.4876 8.54035 2.5464 8.46623 2.62052C8.3921 2.69465 8.3333 2.78265 8.29319 2.8795C8.25307 2.97635 8.23242 3.08015 8.23242 3.18498C8.23242 3.2898 8.25307 3.39361 8.29319 3.49046C8.3333 3.5873 8.3921 3.6753 8.46623 3.74943L13.2149 8.49814L8.46556 13.2469C8.31586 13.3966 8.23176 13.5996 8.23176 13.8113C8.23176 14.023 8.31586 14.2261 8.46556 14.3758C8.61526 14.5255 8.8183 14.6096 9.03001 14.6096C9.24173 14.6096 9.44477 14.5255 9.59447 14.3758L14.907 9.06326C14.9813 8.98927 15.0403 8.90133 15.0806 8.8045C15.1209 8.70766 15.1416 8.60382 15.1417 8.49894C15.1417 8.39406 15.1211 8.2902 15.0809 8.19332C15.0408 8.09643 14.9819 8.00843 14.9076 7.93435V7.93302Z" fill="#080808"/>
</svg>
