<svg xmlns="http://www.w3.org/2000/svg" width="32" height="32" viewBox="0 0 32 32" fill="#000000">
  <path d="M18.0613 17.0612L8.06126 27.0612C7.92173 27.2007 7.75608 27.3114 7.57378 27.3869C7.39147 27.4624 7.19608 27.5013 6.99876 27.5013C6.80143 27.5013 6.60604 27.4624 6.42374 27.3869C6.24143 27.3114 6.07579 27.2007 5.93626 27.0612C5.79673 26.9217 5.68605 26.756 5.61053 26.5737C5.53502 26.3914 5.49615 26.196 5.49615 25.9987C5.49615 25.8014 5.53502 25.606 5.61053 25.4237C5.68605 25.2414 5.79673 25.0757 5.93626 24.9362L14.875 15.9999L5.93876 7.0612C5.65696 6.7794 5.49865 6.39721 5.49865 5.9987C5.49865 5.60018 5.65696 5.21799 5.93876 4.9362C6.22055 4.6544 6.60274 4.49609 7.00126 4.49609C7.39977 4.49609 7.78196 4.6544 8.06376 4.9362L18.0638 14.9362C18.2034 15.0757 18.3142 15.2414 18.3897 15.4239C18.4652 15.6063 18.5039 15.8018 18.5037 15.9992C18.5035 16.1966 18.4643 16.3921 18.3883 16.5743C18.3124 16.7565 18.2013 16.922 18.0613 17.0612ZM28.0613 14.9362L18.0613 4.9362C17.9217 4.79667 17.7561 4.68599 17.5738 4.61047C17.3915 4.53496 17.1961 4.49609 16.9988 4.49609C16.8014 4.49609 16.606 4.53496 16.4237 4.61047C16.2414 4.68599 16.0758 4.79667 15.9363 4.9362C15.7967 5.07573 15.686 5.24137 15.6105 5.42367C15.535 5.60598 15.4962 5.80137 15.4962 5.9987C15.4962 6.19602 15.535 6.39141 15.6105 6.57372C15.686 6.75602 15.7967 6.92167 15.9363 7.0612L24.875 15.9999L15.935 24.9387C15.6532 25.2205 15.4949 25.6027 15.4949 26.0012C15.4949 26.3997 15.6532 26.7819 15.935 27.0637C16.2168 27.3455 16.599 27.5038 16.9975 27.5038C17.396 27.5038 17.7782 27.3455 18.06 27.0637L28.06 17.0637C28.1999 16.9244 28.311 16.7589 28.3868 16.5766C28.4626 16.3943 28.5017 16.1989 28.5018 16.0015C28.5019 15.804 28.4631 15.6085 28.3875 15.4262C28.3119 15.2438 28.201 15.0781 28.0613 14.9387V14.9362Z"/>
</svg>