<svg xmlns="http://www.w3.org/2000/svg" width="32" height="32" viewBox="0 0 32 32" fill="#000000">
  <path d="M21.0612 24.9388C21.343 25.2206 21.5013 25.6027 21.5013 26.0013C21.5013 26.3998 21.343 26.782 21.0612 27.0638C20.7794 27.3456 20.3973 27.5039 19.9987 27.5039C19.6002 27.5039 19.218 27.3456 18.9362 27.0638L8.93624 17.0638C8.7964 16.9244 8.68544 16.7588 8.60974 16.5765C8.53403 16.3942 8.49506 16.1987 8.49506 16.0013C8.49506 15.8038 8.53403 15.6084 8.60974 15.426C8.68544 15.2437 8.7964 15.0781 8.93624 14.9388L18.9362 4.93876C19.218 4.65697 19.6002 4.49866 19.9987 4.49866C20.3973 4.49866 20.7794 4.65697 21.0612 4.93876C21.343 5.22055 21.5013 5.60274 21.5013 6.00126C21.5013 6.39977 21.343 6.78197 21.0612 7.06376L12.125 16L21.0612 24.9388Z"/>
</svg>