<svg width="17" height="17" viewBox="0 0 17 17" fill="none" xmlns="http://www.w3.org/2000/svg">
<path d="M12.2514 9.06193L6.93888 14.3744C6.78918 14.5241 6.58614 14.6082 6.37443 14.6082C6.16272 14.6082 5.95968 14.5241 5.80998 14.3744C5.66027 14.2247 5.57617 14.0217 5.57617 13.81C5.57617 13.5983 5.66027 13.3952 5.80998 13.2455L10.5587 8.49814L5.8113 3.74943C5.73718 3.6753 5.67838 3.5873 5.63826 3.49046C5.59815 3.39361 5.5775 3.2898 5.5775 3.18498C5.5775 3.08015 5.59815 2.97635 5.63826 2.8795C5.67838 2.78265 5.73718 2.69465 5.8113 2.62052C5.88543 2.5464 5.97343 2.4876 6.07028 2.44748C6.16713 2.40737 6.27093 2.38672 6.37576 2.38672C6.48059 2.38672 6.58439 2.40737 6.68124 2.44748C6.77809 2.4876 6.86609 2.5464 6.94021 2.62052L12.2527 7.93302C12.3269 8.00714 12.3858 8.09518 12.4259 8.19209C12.466 8.289 12.4865 8.39287 12.4864 8.49775C12.4863 8.60263 12.4655 8.70646 12.4251 8.80327C12.3848 8.90008 12.3258 8.98798 12.2514 9.06193Z" fill="#080808"/>
</svg>
