<svg width="17" height="17" viewBox="0 0 17 17" fill="none" xmlns="http://www.w3.org/2000/svg">
<path d="M11.1895 13.2494C11.3392 13.3991 11.4233 13.6022 11.4233 13.8139C11.4233 14.0256 11.3392 14.2286 11.1895 14.3783C11.0398 14.528 10.8367 14.6121 10.625 14.6121C10.4133 14.6121 10.2103 14.528 10.0605 14.3783L4.74805 9.06583C4.67376 8.9918 4.61482 8.90383 4.5746 8.80697C4.53438 8.71011 4.51367 8.60626 4.51367 8.50138C4.51367 8.3965 4.53438 8.29265 4.5746 8.19579C4.61482 8.09893 4.67376 8.01096 4.74805 7.93693L10.0605 2.62443C10.2103 2.47473 10.4133 2.39062 10.625 2.39063C10.8367 2.39063 11.0398 2.47473 11.1895 2.62443C11.3392 2.77413 11.4233 2.97717 11.4233 3.18888C11.4233 3.40059 11.3392 3.60363 11.1895 3.75334L6.44207 8.50072L11.1895 13.2494Z" fill="#080808"/>
</svg>
