<?xml version="1.0" encoding="UTF-8" standalone="no"?>
<svg
   sodipodi:docname="stamp-error.svg"
   xmlns:inkscape="http://www.inkscape.org/namespaces/inkscape"
   xmlns:sodipodi="http://sodipodi.sourceforge.net/DTD/sodipodi-0.dtd"
   xmlns:xlink="http://www.w3.org/1999/xlink"
   xmlns="http://www.w3.org/2000/svg"
   xmlns:svg="http://www.w3.org/2000/svg"
   version="1.1"
   width="32"
   height="32"
   viewBox="0 0 32 32"
   fill="none">
  <defs
     id="gradient">
    <linearGradient
       id="linearGradientBase"
       inkscape:collect="always">
      <stop
         style="stop-color:#660000;stop-opacity:1"
         offset="0"
         id="stop1" />
      <stop
         style="stop-color:#330000;stop-opacity:1"
         offset="1"
         id="stop2" />
    </linearGradient>
    <linearGradient
       inkscape:collect="always"
       xlink:href="#linearGradientBase"
       id="linearGradient"
       x1="10.761111"
       y1="0.93069088"
       x2="25.012312"
       y2="31.585316"
       gradientUnits="userSpaceOnUse" />
  </defs>
  <rect
     id="background"
     width="100%"
     height="100%"
     fill="#330000"
     style="fill-opacity:1;fill:url(#linearGradient)" />
  <g
     id="stamp-text"
     transform="matrix(0.98302945,0,0,0.98302945,0.25801204,0.10947081)">
    <g
       id="stamp"
       transform="matrix(1.105188,0,0,1.105188,-1.1021152,-0.74102893)">
      <path
         id="handle"
         d="m 14.700824,15.765136 -1.021031,-4.766335 c -0.04276,-0.200795 -0.04011,-0.408603 0.0079,-0.608252 0.04783,-0.199644 0.13966,-0.38608 0.268752,-0.5456881 0.12914,-0.1596088 0.292276,-0.2883576 0.477554,-0.3768389 0.185233,-0.088474 0.387922,-0.1344537 0.593185,-0.1345699 h 0.918812 c 0.205354,2.69e-5 0.408089,0.045941 0.593416,0.1343871 0.185322,0.088443 0.34855,0.2171775 0.477735,0.3767998 0.129186,0.159616 0.221067,0.346085 0.268938,0.545773 0.04788,0.19969 0.0505,0.407551 0.0079,0.608389 l -1.02103,4.766335"
         stroke="#990000"
         stroke-width="0.407"
         stroke-linecap="round"
         stroke-linejoin="round" />
      <path
         id="rubber"
         d="m 20.080898,15.765136 h -9.188123 c -0.253723,0 -0.459405,0.205678 -0.459405,0.459408 v 2.29703 c 0,0.25373 0.205682,0.459407 0.459405,0.459407 h 9.188123 c 0.253729,0 0.459404,-0.205677 0.459404,-0.459407 v -2.29703 c 0,-0.25373 -0.205675,-0.459408 -0.459404,-0.459408 z"
         stroke="#990000"
         stroke-width="0.407"
         stroke-linecap="round"
         stroke-linejoin="round" />
    </g>
    <text
       xml:space="preserve"
       class="animate-pulse"
       style="font-style:normal;font-variant:normal;font-weight:bold;font-stretch:normal;font-size:2.242px;line-height:0;font-family:'Work Sans';;text-align:start;letter-spacing:0.305px;word-spacing:0px;text-anchor:start;display:inline;fill:#990000;fill-opacity:1;stroke:#990000;stroke-width:0.0255;stroke-dasharray:none;stroke-opacity:1"
       x="11.259371"
       y="23.5557"
       dx="0"
       dy="0"
       rotate="25 25 25 25 25 0"
       id="text">ERROR</text>
  </g>
</svg>
